<svg aria-hidden="true" style="position:absolute;width:0;height:0" xmlns="http://www.w3.org/2000/svg" overflow="hidden"><defs><symbol id="smartphone" viewBox="0 0 20 32"><path  d="M17 0H3C1.346 0 0 1.346 0 3v26c0 1.654 1.346 3 3 3h14c1.654 0 3-1.346 3-3V3c0-1.654-1.346-3-3-3zM3 2h14c.552 0 1 .448 1 1v21H2V3c0-.552.448-1 1-1zm14 28H3c-.552 0-1-.448-1-1v-3h16v3c0 .552-.448 1-1 1z"/><path  d="M4.707 27.478c.391.365.391.956 0 1.321s-1.024.365-1.414 0c-.391-.365-.391-.956 0-1.321s1.024-.365 1.414 0z"/></symbol><symbol id="envelope" viewBox="0 0 43 32"><path d="M38.667 0H4C1.795 0 0 1.794 0 4v24c0 2.206 1.794 4 4 4h34.667c2.206 0 4-1.794 4-4V4c0-2.205-1.794-4-4-4zm0 2.667c.184 0 .36.038.52.107l-.009-.003-17.844 15.466L3.489 2.771c.151-.065.327-.103.511-.103h34.667zm0 26.666H4c-.736 0-1.333-.597-1.333-1.333V5.587L20.46 21.008c.232.202.538.325.872.325h.003c.334 0 .64-.123.874-.327l-.002.001L40 5.586v22.413c0 .736-.598 1.333-1.333 1.333z"/></symbol><symbol id="icon-antenna" viewBox="0 0 32 32"><path fill="#212121" style="fill:var(--color1, #212121)" d="m30.773 22.098-8.443-8.505.937-4.616c.225.09.485.144.758.146h.033a2.16 2.16 0 1 0-2.029-1.42l-.005-.015-4.96.606L8.973.161a.53.53 0 0 0-.376-.16.536.536 0 0 0-.373.155L6.712 1.66a.535.535 0 0 0 0 .754l.814.825C6.383 5.301 5.71 7.761 5.71 10.378c0 4.106 1.656 7.824 4.336 10.525l-.001-.001a.49.49 0 0 0 .146.097 2.986 2.986 0 0 0-.052.546v6.188h-6.4a2.669 2.669 0 0 0-2.667 2.666v1.067c0 .295.239.534.534.534H26.14a.534.534 0 0 0 .533-.534v-1.067a2.67 2.67 0 0 0-2.666-2.666h-6.4v-2.742a14.784 14.784 0 0 0 10.166-1.502l-.077.039.818.823a.534.534 0 0 0 .376.16.536.536 0 0 0 .373-.155l1.512-1.504a.535.535 0 0 0 0-.754zM23.28 6.233a1.067 1.067 0 1 1 .752 1.822h-.004a1.066 1.066 0 0 1-.747-1.822h-.002zm-1.256 3.504-.598 2.946-1.175-1.183 1.774-1.763zm-.605-.902-1.92 1.909-1.486-1.493 3.406-.416zM24.004 28.8a1.6 1.6 0 0 1 1.6 1.6v.534H2.138V30.4a1.6 1.6 0 0 1 1.6-1.6h20.267zm-7.466-2.134v1.067h-5.334v-1.067h5.334zM11.204 25.6v-4.053c0-1.294 1.196-2.346 2.667-2.346s2.667 1.053 2.667 2.346V25.6h-5.334zm6.4-1.696v-2.357c0-1.882-1.675-3.413-3.733-3.413h-.058c-1.353 0-2.54.707-3.213 1.771l-.009.016a13.817 13.817 0 0 1-3.812-9.55c0-2.314.567-4.496 1.569-6.414l-.036.077 18.602 18.709c-1.823.947-3.979 1.502-6.266 1.502-1.079 0-2.128-.124-3.136-.357l.093.018zm11.289-.684L7.836 2.039l.754-.752 7.935 7.98c.004 0 .006.007.01.01l13.114 13.191-.757.752z"/><path fill="#2196f3" style="fill:var(--color2, #2196f3)" d="M13.876 20.267h-.007a1.6 1.6 0 0 0-.003 3.2h.007a1.6 1.6 0 0 0 .002-3.2zm.373 1.978a.534.534 0 1 1-.378-.912.533.533 0 0 1 .374.911h.005z"/></symbol><symbol id="icon-astronaut" viewBox="0 0 32 32"><path fill="#2196f3" style="fill:var(--color2, #2196f3)" d="M31.974 4.524a.535.535 0 0 0-.427-.362h-.003l-1.911-.278-.855-1.731c-.179-.365-.777-.365-.956 0l-.855 1.731-1.911.278a.534.534 0 0 0-.296.91l1.383 1.348-.326 1.903a.532.532 0 0 0 .774.562l1.709-.899 1.709.899a.534.534 0 0 0 .773-.565v.003l-.326-1.903 1.383-1.348a.535.535 0 0 0 .134-.55l.001.004zm-2.463 1.327a.53.53 0 0 0-.153.472l.191 1.114-1-.526a.525.525 0 0 0-.501.001l.003-.001-1 .526.191-1.114a.53.53 0 0 0-.152-.472l-.811-.79 1.119-.162a.532.532 0 0 0 .402-.292l.5-1.013.5 1.013a.532.532 0 0 0 .402.292l1.119.162-.809.79zm-3.377 14.671h-1.067v1.067h1.067v-1.067zm0 2.134h-1.067v1.066h1.067v-1.066zm1.066-1.067h-1.067v1.067H27.2v-1.067zm-2.133 0H24v1.067h1.067v-1.067zm-2.667 4.8h-1.067v1.067H22.4v-1.067zm0 2.134h-1.067v1.067H22.4v-1.067zm1.067-1.067H22.4v1.067h1.067v-1.067zm-2.133 0h-1.067v1.067h1.067v-1.067zM16 24.256h-1.066v1.067H16v-1.067zm0 2.133h-1.066v1.067H16v-1.067zm1.067-1.067H16v1.067h1.067v-1.067zm-2.133 0h-1.067v1.067h1.067v-1.067zm-9.067-19.2H4.801v1.066h1.066V6.122zm0 2.134H4.801v1.066h1.066V8.256zm1.066-1.067H5.866v1.067h1.066V7.189zm-2.133 0H3.733v1.067H4.8V7.189z"/><path fill="#212121" style="fill:var(--color1, #212121)" d="M24.715 14.16a1.774 1.774 0 0 0-1.179-.703l-.009-.001a1.769 1.769 0 0 0-1.344.355l.004-.003-1.253.96-1.898 1.417-1.358-.541c2.421-1.086 4.113-3.508 4.113-6.32 0-3.823-3.122-6.934-6.961-6.934S7.869 5.5 7.869 9.324c0 1.386.415 2.674 1.12 3.759l-2.768-.024c-.009 0-.016.005-.023.005a.511.511 0 0 0-.159.033l.004-.001c-.013.005-.026.007-.038.013-.006.003-.013.003-.019.006l-3.233 1.596-.001.001-1.893.91a.5.5 0 0 0-.065.036l.001-.001a1.782 1.782 0 0 0-.594 2.306l-.005-.01c.22.424.592.742 1.043.885l.013.003a1.772 1.772 0 0 0 1.388-.133l-.009.005 1.388-.738 2.264-1.169 1.357-.008-5.442 5.415-.001.001-1.339 1.333a1.643 1.643 0 0 0-.491 1.173v.005a1.668 1.668 0 0 0 1.667 1.664h.002a1.67 1.67 0 0 0 1.18-.485l1.314-1.309 1.741-1.3.901.897L4.07 27.28a1.643 1.643 0 0 0-.491 1.173v.004a1.662 1.662 0 0 0 1.666 1.664h.003a1.67 1.67 0 0 0 1.18-.485l4.488-4.472c.007-.006.016-.009.022-.016l5.166-5.658 3.471.494a.474.474 0 0 0 .262-.032c.017-.006.032-.015.049-.023.019-.01.039-.015.058-.027l3.213-2.133c.012-.008.018-.021.029-.03.013-.01.029-.014.041-.026l1.271-1.191c.348-.326.564-.787.564-1.3 0-.4-.132-.769-.355-1.066l.003.005zM2.13 17.77a.706.706 0 0 1-.564.05l.005.001a.717.717 0 0 1-.215-1.258l.002-.001 1.314-.632.316.924.133.389-.992.527zm3.497-1.828-1.548.8-.255-.746-.184-.537 2.027-1.001-.04 1.484zm15.1-6.62c0 .918-.219 1.785-.599 2.56l-4.181-1.899a1.865 1.865 0 0 0-.782-1.384l-.006-.004 1.464-4.861c2.377.757 4.104 2.975 4.104 5.588zm-11.789 0c0-3.235 2.644-5.867 5.894-5.867.253 0 .5.022.745.053l-1.432 4.753c-.019 0-.037-.006-.057-.006h-.001a1.872 1.872 0 0 0-1.872 1.867 1.873 1.873 0 0 0 1.872 1.867h.001c.695 0 1.295-.383 1.618-.944l3.863 1.755a5.891 5.891 0 0 1-4.737 2.39c-3.25 0-5.894-2.632-5.894-5.867zm5.957.8c0 .441-.362.8-.806.8h-.001a.804.804 0 0 1-.804-.8c0-.441.361-.8.806-.8s.806.359.806.8zM2.464 25.146a.606.606 0 0 1-.855.001.591.591 0 0 1 0-.844l.962-.959.852.848-.959.954zm3.214 3.734a.606.606 0 0 1-.855.001.591.591 0 0 1 0-.844l.963-.959.852.848-.96.955zm3.482-3.469-.001.001-1.765 1.76-.852-.848 1.765-1.757a.527.527 0 0 0 .09-.136c.007-.014.02-.026.026-.04.016-.041.019-.085.026-.128.003-.025.014-.048.014-.073 0-.035-.013-.07-.02-.105-.006-.032-.006-.064-.019-.096a.536.536 0 0 0-.092-.138c-.01-.012-.014-.026-.025-.038h-.001l-.001-.002-1.607-1.6c-.017-.017-.039-.024-.058-.038a.491.491 0 0 0-.084-.056l-.003-.001a.527.527 0 0 0-.09-.031l-.003-.001a.502.502 0 0 0-.101-.02h-.025a.603.603 0 0 0-.075.005h.003c-.036.005-.069.009-.104.021s-.064.027-.094.045c-.02.011-.043.015-.061.029l-1.774 1.324-.901-.897 2.399-2.386 4.36 4.289-.928.919zm6.819-7.017c-.016-.002-.03.004-.046.003l-.027-.001a.562.562 0 0 0-.092.008h.003a.484.484 0 0 0-.187.07l.002-.001a.492.492 0 0 0-.083.061c-.013.011-.028.016-.04.029l-4.698 5.146-4.328-4.256 2.833-2.818a.535.535 0 0 0-.378-.911h-.002l-2.219.013.028-1.607 3.104.027a6.928 6.928 0 0 0 4.978 2.101h.003c.438 0 .864-.046 1.28-.122.04.032.08.064.129.085l2.41.96.152.758.178.886-3.003-.427zm4.041.178-.313-1.558 1.446-1.08.946 1.257-2.08 1.381zm3.753-2.831-.837.785-.931-1.236.831-.637a.735.735 0 0 1 .543-.143.718.718 0 0 1 .621.71.71.71 0 0 1-.226.521z"/><path fill="#212121" style="fill:var(--color1, #212121)" d="m13.602 18.544-2.143-2.134a.53.53 0 0 0-.752 0l-2.143 2.133a.535.535 0 0 0 0 .756l2.142 2.134a.53.53 0 0 0 .752 0l2.143-2.134a.532.532 0 0 0 0-.756zm-2.519 1.759-1.387-1.381 1.386-1.381 1.387 1.381-1.387 1.381zm6.081-15.232-.258 1.036c.071.018 1.738.452 1.738 2.149h1.067c0-2.017-1.666-2.965-2.547-3.184zm2.547 4.251h-1.067v1.066h1.067V9.322z"/></symbol><symbol id="icon-clock" viewBox="0 0 32 32"><path fill="#212121" style="fill:var(--color1, #212121)" d="M31.296 15.301C31.295 6.849 24.441-.002 15.988 0S.685 6.855.687 15.308c.002 6.788 4.422 12.543 10.541 14.545l.108.031a.667.667 0 0 0 .529-.065.636.636 0 0 0 .283-.357l3.865-12.25a1.913 1.913 0 1 0-.852-3.63l.011-.005-5.106-5.107a.638.638 0 0 0-.902.902l5.103 5.109a1.847 1.847 0 0 0-.191.826c0 .602.283 1.137.723 1.48l.004.003-3.682 11.673C3.843 25.782.117 17.709 2.797 10.431S13.551-.573 20.829 2.108c7.278 2.681 11.004 10.754 8.323 18.032-1.345 3.581-4.003 6.406-7.374 7.938l-.088.036-.398-1.874a.639.639 0 0 0-1.05-.343l.001-.001-3.837 3.426a.637.637 0 0 0 .227 1.083l.005.001 4.899 1.563a.637.637 0 0 0 .818-.744l.001.004-.391-1.839c5.528-2.374 9.329-7.772 9.329-14.057v-.034.002zm-15.304-.637a.638.638 0 0 1 0 1.276.638.638 0 0 1 0-1.276zm2.1 14.864 2.184-1.948.603 2.84-2.787-.892z"/><path fill="#2196f3" style="fill:var(--color2, #2196f3)" d="M15.354 3.185V4.46a.638.638 0 0 0 1.276 0V3.185a.638.638 0 1 0-1.276 0zM3.876 14.664a.638.638 0 0 0 0 1.276h1.275a.638.638 0 0 0 0-1.276H3.876zm24.232 1.275a.638.638 0 0 0 0-1.276h-1.275a.638.638 0 0 0 0 1.276h1.275z"/></symbol><symbol id="icon-diagram" viewBox="0 0 32 32"><path fill="#2196f3" style="fill:var(--color2, #2196f3)" d="M14.926 14.965h1.066v4.798h-1.066v-4.798zm4.264 2.132h1.066v2.665H19.19v-2.665zm-8.529 1.599h1.066v1.066h-1.066v-1.066zm-3.198-.533h1.066v1.599H7.463v-1.599z"/><path fill="#212121" style="fill:var(--color1, #212121)" d="M1.599 28.291h25.586a1.6 1.6 0 0 0 1.599-1.599V24.56a1.6 1.6 0 0 0-1.599-1.599h-.533V9.667l3.028-2.868a1.608 1.608 0 1 0-.742-.752l-.004-.01-2.281 2.162v-1.23a1.6 1.6 0 0 0-1.599-1.599H3.731a1.6 1.6 0 0 0-1.599 1.599v15.992h-.533A1.6 1.6 0 0 0 0 24.56v2.132a1.6 1.6 0 0 0 1.599 1.599zM30.384 4.837a.533.533 0 0 1 0 1.066.533.533 0 0 1 0-1.066zM3.198 6.969c0-.294.239-.533.533-.533h21.323c.294 0 .533.239.533.533v2.239l-1.066 1.013V8.036a.534.534 0 0 0-.534-.534H4.798a.534.534 0 0 0-.534.533v13.327c0 .294.239.533.534.533h19.189a.534.534 0 0 0 .534-.533v-9.675l1.066-1.01V22.96H3.198V6.969zm4.798 6.93h-.005a1.6 1.6 0 1 0 1.112 2.748l1.853.93a.535.535 0 0 0 .636-.122l3.939-4.432 3.872 2.902a.534.534 0 0 0 .686-.039l3.365-3.188v8.131H5.331V8.568h18.123v2.661l-3.771 3.572-3.904-2.927a.534.534 0 0 0-.718.071v.001l-3.993 4.493-1.493-.746c.011-.064.017-.128.02-.193a1.6 1.6 0 0 0-1.599-1.599zm.533 1.599a.533.533 0 0 1-1.066 0 .533.533 0 0 1 1.066 0zm3.198 8.528h5.33v.533a.533.533 0 0 1-.533.533h-4.265a.533.533 0 0 1-.533-.533v-.533zm-10.66.534c0-.294.238-.533.533-.533h9.062v.533a1.6 1.6 0 0 0 1.599 1.599h4.265a1.6 1.6 0 0 0 1.599-1.599v-.533h9.062c.294 0 .533.239.533.533v2.132a.533.533 0 0 1-.533.533H1.601a.533.533 0 0 1-.533-.533V24.56z"/></symbol><symbol id="linkedin" viewBox="0 0 32 32"><path d="M31.992 32v-.001H32V20.263c0-5.741-1.236-10.164-7.948-10.164-3.227 0-5.392 1.771-6.276 3.449h-.093v-2.913h-6.364v21.364h6.627V21.42c0-2.785.528-5.479 3.977-5.479 3.399 0 3.449 3.179 3.449 5.657v10.401h6.62zM.528 10.636h6.635V32H.528V10.636zM3.843 0C1.722 0 0 1.721 0 3.843s1.721 3.879 3.843 3.879c2.121 0 3.843-1.757 3.843-3.879C7.685 1.722 5.963 0 3.843 0z"/></symbol><symbol id="facebook" viewBox="0 0 32 32"><path  d="M21.329 5.313h2.921V.225C23.746.156 22.013 0 19.994 0c-4.212 0-7.097 2.649-7.097 7.519V12H8.249v5.688h4.648V32h5.699V17.689h4.46l.708-5.688h-5.169V8.082c.001-1.644.444-2.769 2.735-2.769z"/></symbol><symbol id="twitter" viewBox="0 0 32 32"><path  d="M32 6.078c-1.19.522-2.458.868-3.78 1.036 1.36-.812 2.398-2.088 2.886-3.626-1.268.756-2.668 1.29-4.16 1.588C25.742 3.794 24.026 3 22.154 3c-3.632 0-6.556 2.948-6.556 6.562 0 .52.044 1.02.152 1.496-5.454-.266-10.28-2.88-13.522-6.862-.566.982-.898 2.106-.898 3.316 0 2.272 1.17 4.286 2.914 5.452-1.054-.02-2.088-.326-2.964-.808v.072c0 3.188 2.274 5.836 5.256 6.446-.534.146-1.116.216-1.72.216-.42 0-.844-.024-1.242-.112.85 2.598 3.262 4.508 6.13 4.57-2.214 1.744-5.044 2.798-8.12 2.798h-.015.001c-.538 0-1.054-.024-1.57-.09C2.906 27.93 6.35 29 10.064 29c12.072 0 18.672-10 18.672-18.668 0-.29-.01-.57-.024-.848C30.014 8.56 31.108 7.406 32 6.078z"/></symbol><symbol id="instagram" viewBox="0 0 32 32"><path d="M31.969 9.408c-.075-1.7-.35-2.869-.744-3.882-.406-1.075-1.032-2.038-1.851-2.838A7.8895 7.8895 0 0026.596.862l-.054-.018C25.523.45 24.36.175 22.66.1 20.947.019 20.403 0 16.059 0s-4.888.019-6.595.094c-1.7.075-2.869.35-3.882.744-1.075.406-2.038 1.031-2.838 1.85A7.8895 7.8895 0 00.918 5.466L.9 5.52C.506 6.539.231 7.701.156 9.402c-.081 1.713-.1 2.257-.1 6.602s.019 4.888.094 6.595c.075 1.7.35 2.869.744 3.882.427 1.11 1.056 2.057 1.849 2.837l.001.001c.78.792 1.724 1.419 2.778 1.826l.054.018c1.019.394 2.182.669 3.882.744 1.706.075 2.25.094 6.595.094s4.888-.019 6.595-.094c1.7-.075 2.869-.35 3.882-.744 2.157-.85 3.832-2.525 4.663-4.627l.019-.055c.394-1.019.669-2.182.744-3.882.075-1.707.094-2.251.094-6.595s-.006-4.888-.081-6.595zm-2.882 13.065c-.069 1.563-.331 2.407-.55 2.969-.551 1.4-1.639 2.487-3.002 3.026l-.036.013c-.563.219-1.413.481-2.969.55-1.688.075-2.194.094-6.464.094s-4.782-.019-6.464-.094c-1.563-.069-2.407-.331-2.969-.55-.694-.256-1.325-.663-1.838-1.194a4.9797 4.9797 0 01-1.183-1.804l-.011-.034c-.219-.563-.481-1.413-.55-2.969-.075-1.688-.094-2.194-.094-6.464s.019-4.782.094-6.464c.069-1.563.331-2.407.55-2.969.256-.694.663-1.325 1.2-1.838a4.9797 4.9797 0 011.804-1.183l.034-.011c.563-.219 1.413-.481 2.969-.55 1.688-.075 2.194-.094 6.464-.094 4.276 0 4.782.019 6.464.094 1.563.069 2.407.331 2.969.55.694.256 1.325.662 1.838 1.194.531.519.938 1.144 1.194 1.838.219.563.481 1.413.55 2.969.075 1.688.094 2.194.094 6.464s-.019 4.77-.094 6.458z"/><path d="M16.059 7.783c-4.538 0-8.22 3.682-8.22 8.22s3.682 8.22 8.22 8.22c4.539 0 8.22-3.682 8.22-8.22s-3.682-8.22-8.22-8.22zm0 13.552c-2.944 0-5.332-2.388-5.332-5.332s2.388-5.332 5.332-5.332 5.332 2.388 5.332 5.332-2.388 5.332-5.332 5.332zM26.524 7.458c0 1.06-.859 1.919-1.919 1.919s-1.919-.859-1.919-1.919.859-1.919 1.919-1.919 1.919.859 1.919 1.919z"/></symbol><symbol id="tagline" viewBox="0 0 57 32"><path d="M28.493 14.618c-.236-.315-.349-.686-.323-1.061v-1.538c0-.471.107-.83.321-1.075s.581-.367 1.102-.366c.489 0 .836.104 1.042.313.224.266.333.592.308.92v.361h-.875v-.366c0-.014.001-.031.001-.048 0-.11-.009-.217-.028-.321l.002.011c-.013-.081-.057-.156-.125-.213a.505.505 0 00-.317-.083c-.12-.008-.239.024-.333.088-.076.063-.127.145-.145.235-.022.105-.035.226-.035.349v.033-.002 1.866c-.014.18.025.36.112.524.044.055.104.099.175.127a.4798.4798 0 00.228.029h-.002c.112.008.223-.022.31-.084.071-.061.117-.141.13-.227.018-.101.028-.217.028-.336v-.04.002-.379h.875v.346c.025.342-.082.682-.303.967-.201.228-.544.343-1.047.343s-.884-.122-1.1-.375zm3.644.015c-.221-.239-.332-.588-.332-1.05v-1.617c0-.457.11-.802.332-1.037s.591-.351 1.109-.35c.515 0 .882.117 1.103.35.221.235.333.58.333 1.037v1.617c0 .457-.112.807-.337 1.048s-.591.361-1.1.361c-.509 0-.886-.122-1.109-.36zm1.517-.388a.906.906 0 00.105-.479v-1.98a.8806.8806 0 00-.103-.469c-.044-.057-.106-.101-.179-.129a.4688.4688 0 00-.171-.031c-.021 0-.042.001-.062.004h.002a.4707.4707 0 00-.235.029l.003-.001c-.073.028-.135.072-.18.129a.8534.8534 0 00-.105.469v1.99c-.011.165.025.329.105.479.051.05.114.091.185.119s.147.042.225.042c.078 0 .154-.014.225-.042a.5402.5402 0 00.185-.119v-.009zm2.081-3.619h.942l.708 2.984.725-2.984h.917l.092 4.308h-.678l-.072-2.994-.699 2.994h-.544l-.725-3.005-.067 3.005h-.685l.085-4.308zm4.441 0h1.468c.846 0 1.268.408 1.268 1.223 0 .781-.445 1.171-1.335 1.17h-.5v1.915h-.906l.005-4.308zm1.254 1.841c.09.01.18.003.266-.021a.6539.6539 0 00.233-.116l-.001.001c.104-.146.15-.316.13-.486.001-.014.001-.031.001-.048 0-.122-.016-.24-.047-.352l.002.009a.3056.3056 0 00-.067-.118.3898.3898 0 00-.112-.086l-.002-.001a.926.926 0 00-.356-.07c-.017 0-.034 0-.051.001h.002-.352v1.287h.352zm2.788-1.841h.973l.998 4.308h-.844l-.197-.993h-.868l-.203.993h-.857l.998-4.308zm.832 2.815l-.339-1.808-.339 1.808h.678zm1.946-2.815h.634l1.214 2.457v-2.457h.752v4.308h-.603l-1.221-2.565v2.565h-.777l.002-4.308zm4.361 2.665l-1.009-2.659h.85l.616 1.708.578-1.708h.832l-.997 2.659v1.642h-.87v-1.642zm-21.465 3.526v.225h-.739v1.75h-.31v-1.75H28.1v-.225h1.792zm2.317 1.976h-.245a.1052.1052 0 01-.061-.019.1091.1091 0 01-.04-.045v-.001l-.214-.469h-1.026l-.214.469a.1258.1258 0 01-.033.053.1083.1083 0 01-.062.019h-.244l.906-1.976h.315l.917 1.968zm-1.5-.734h.855l-.362-.804a1.2783 1.2783 0 01-.064-.176l-.003-.01c-.013.038-.024.073-.034.105l-.033.083-.359.802zm3.062.54c.057.003.114.003.17 0 .054-.005.104-.013.152-.025l-.007.001c.052-.011.096-.023.138-.038l-.008.002c.04-.014.08-.031.121-.048v-.444h-.366a.0587.0587 0 01-.023-.004h.001a.0836.0836 0 01-.023-.012c-.006-.004-.01-.01-.014-.016a.0342.0342 0 01-.004-.018v-.154h.703v.757c-.11.069-.237.125-.373.159l-.009.002a1.59 1.59 0 01-.219.04l-.007.001a2.633 2.633 0 01-.261.012h-.016c-.159 0-.312-.027-.454-.076l.01.003a1.1044 1.1044 0 01-.362-.206c-.101-.09-.18-.196-.234-.313s-.083-.253-.083-.397v-.013-.011c0-.145.03-.282.084-.407l-.003.007a.9066.9066 0 01.234-.313c.103-.089.227-.159.362-.205.14-.047.301-.074.468-.074h.019-.001.001c.088 0 .175.006.26.018l-.01-.001c.082.012.154.029.224.053l-.009-.003c.063.021.124.047.181.078.056.031.108.065.158.103l-.087.122a.0686.0686 0 01-.029.027.092.092 0 01-.041.01.111.111 0 01-.057-.016h.001a.892.892 0 01-.094-.05l.005.003a.6873.6873 0 00-.116-.051l-.006-.002a1.0266 1.0266 0 00-.16-.043l-.007-.001a1.3487 1.3487 0 00-.218-.017h-.012.001-.011c-.121 0-.237.02-.346.057l.008-.002a.7602.7602 0 00-.266.156.7041.7041 0 00-.169.246c-.038.098-.061.211-.061.329s.022.232.063.336l-.002-.006c.04.093.101.178.181.249.074.068.164.121.265.156.115.034.237.047.359.039zm2.888-.032h.989v.225h-1.292v-1.976h.31l-.007 1.75zm2.019.225h-.31v-1.976h.31v1.976zm1.152-1.966c.018.009.034.021.047.036l1.324 1.489c-.001-.011-.001-.023-.001-.035s0-.025.001-.037v.002-1.472h.27v1.984h-.166c-.02 0-.04-.004-.058-.012h.001a.2036.2036 0 01-.049-.037l-1.323-1.488v1.536h-.259v-1.976h.161c.018 0 .036.003.052.01h-.001zm3.923-.009v.217h-1.098v.652h.89v.21h-.89v.674h1.098v.217h-1.417v-1.971h1.417zM11.286 4.616l13.757 3.372v11.818l-13.757-3.371V4.616zm-.882-1.007V17.01l15.52 3.806V7.417L10.404 3.61z"/><path d="M18.722 27.036L3.2 23.227V9.828l15.522 3.807v13.401z"/><path d="M10.661 4.465l13.578 3.33-5.774 4.987L4.885 9.45l5.776-4.985zm-.257-.856L3.2 9.828l15.522 3.807 7.202-6.219-15.52-3.807zm9.191 22.673l6.329-5.465-6.329-1.553v7.018z"/></symbol><symbol id="brand" viewBox="0 0 57 32"><path  d="M14.27 23.859c.13.147.199.332.196.521a.7562.7562 0 01-.072.365l.002-.005a.8297.8297 0 01-.232.296l-.002.001c-.221.152-.494.243-.789.243-.032 0-.064-.001-.096-.003h.004-1.549v-3.301h1.517a1.377 1.377 0 01.846.222l-.005-.003c.098.076.176.171.227.277.051.108.074.224.068.341.009.181-.053.361-.176.505-.118.131-.281.222-.462.258.205.034.391.134.523.283zm-1.816-.498h.649a.655.655 0 00.412-.11.3855.3855 0 00.109-.144l.001-.003c.019-.043.03-.092.03-.145 0-.011-.001-.022-.001-.033v.001c.001-.008.001-.018.001-.028 0-.053-.011-.104-.031-.15l.001.002a.3989.3989 0 00-.108-.147h-.001a.665.665 0 00-.373-.113c-.018 0-.036.001-.054.002h.002-.638v.867zm1.124 1.266c.051-.04.091-.091.118-.149l.001-.003a.3697.3697 0 00.034-.158c0-.009 0-.018-.001-.027v.001c0-.007.001-.016.001-.024 0-.059-.013-.115-.037-.165l.001.002a.4093.4093 0 00-.121-.151l-.001-.001a.7054.7054 0 00-.397-.121c-.015 0-.03 0-.045.001h.002-.68v.908h.689c.155.008.308-.032.435-.115zm3.793.651l-.843-1.291h-.317v1.291h-.726v-3.302h1.374c.029-.002.064-.003.098-.003.323 0 .622.107.862.287l-.004-.003c.192.179.308.415.327.666a.761.761 0 01.002.069c0 .241-.086.461-.228.633l.001-.002c-.171.175-.396.296-.649.335l-.006.001.899 1.319h-.789zm-1.161-1.74h.594c.412 0 .619-.166.619-.5 0-.008.001-.017.001-.027 0-.063-.013-.122-.035-.176l.001.003a.4937.4937 0 00-.118-.171.6797.6797 0 00-.47-.133h.003-.601l.007 1.005zm5.129 1.075h-1.446l-.255.665h-.761l1.328-3.265h.823l1.323 3.265h-.761l-.25-.665zm-.194-.499l-.529-1.394-.529 1.394h1.057zm5.16 1.164h-.72l-1.616-2.245v2.245h-.719v-3.302h.719l1.616 2.259v-2.259h.72v3.302zm4.113-.79c-.149.249-.376.452-.652.582-.28.132-.608.209-.955.209-.021 0-.041 0-.062-.001h.003-1.282v-3.302h1.283c.018 0 .039-.001.06-.001.345 0 .673.075.968.209l-.015-.006c.276.128.503.329.652.576.148.269.226.565.226.867s-.077.597-.226.866zm-.825-.079c.196-.205.317-.482.318-.788 0-.289-.113-.569-.318-.788a1.3165 1.3165 0 00-.906-.281h.004-.5v2.138h.5c.025.002.054.003.083.003.311 0 .596-.107.822-.285l-.003.002zm-7.803-20.8s9.3 3.215 9.103 7.867v7.869s-9.294-3.216-9.1-7.869l-.003-7.867zm17.389 13.894c1.757-1.107 3.788-1.792 5.909-1.994v-2.464c-2.444.863-4.517 2.427-5.909 4.458z"/><path d="M38.124 18.245c1.437-2.651 3.93-4.696 6.964-5.716V5.431s-13.245 4.58-12.965 11.205v11.203s.59-.205 1.519-.589c0-.358 0-.719.043-1.083.274-3.075 1.87-5.925 4.439-7.924z"/><path  d="M36.864 22.407c.069-.777.225-1.546.463-2.294-1.599 1.725-2.568 3.867-2.769 6.122-.02.213-.03.426-.036.645 1.105-.483 1.942-.895 2.761-1.334l-.214.105a10.6241 10.6241 0 01-.206-3.244zm.527.04a9.816 9.816 0 00-.041.909c0 .718.074 1.419.216 2.094l-.012-.066c3.619-1.983 7.685-5.046 7.528-8.748v-.323c-2.586.265-5.004 1.3-6.885 2.946-.415.932-.702 2.014-.804 3.148l-.003.04z"/></symbol><symbol id="foster" viewBox="0 0 57 32"><path d="M12.878 11.255h-.002c-1.279 0-2.316.921-2.316 2.058v.002c0 1.137 1.037 2.058 2.316 2.058h.002c1.279 0 2.316-.922 2.316-2.058v-.001c0-1.137-1.037-2.059-2.316-2.059zm17.093-.658c-.004-1.579-.711-3.092-1.967-4.209s-2.958-1.745-4.734-1.749c-1.777.003-3.481.631-4.737 1.748s-1.964 2.63-1.968 4.209v8.706s13.405-1.327 13.406-8.704v-.002zM5.867 22.16c.003 1.099.496 2.151 1.37 2.928s2.058 1.214 3.294 1.218c1.236-.003 2.42-.441 3.294-1.218s1.366-1.829 1.37-2.927v-6.058s-9.327.924-9.327 6.057zm4.663 1.085c-.242 0-.477-.063-.678-.183-.195-.115-.35-.281-.447-.48l-.003-.007c-.059-.121-.093-.264-.093-.415 0-.075.009-.148.025-.219l-.001.007c.047-.211.163-.404.334-.556s.388-.255.625-.297c.072-.013.154-.021.239-.021.168 0 .328.03.476.085l-.009-.003c.223.082.414.221.548.4s.206.388.206.603c.001.143-.03.285-.092.417-.066.139-.155.256-.263.352l-.001.001a1.238 1.238 0 01-.397.236c-.139.053-.3.083-.467.083h-.001v-.004zm9.426-.598h-.9v.93h-.469v-2.276h1.482v.38h-1.013v.588h.9v.378zm2.253-.156c0 .224-.039.42-.118.589s-.193.299-.341.391a.9309.9309 0 01-.489.138h-.018.001c-.189 0-.357-.045-.505-.136a.917.917 0 01-.341-.382l-.002-.006c-.078-.165-.123-.358-.123-.561v-.021.001-.112c0-.224.04-.421.12-.591.081-.171.195-.302.342-.392.148-.092.316-.138.506-.138s.357.046.505.138c.148.091.262.221.342.392.081.17.122.366.122.589v.101zm-.475-.103c0-.238-.043-.42-.128-.544a.4173.4173 0 00-.348-.186h-.019.001-.018c-.144 0-.271.073-.346.183l-.001.001c-.085.122-.129.301-.13.538v.111c0 .232.043.412.128.54s.208.192.369.192h.018c.143 0 .269-.073.343-.183l.001-.001c.084-.124.127-.304.128-.541v-.111zm1.995.592v-.013c0-.077-.037-.145-.093-.189h-.001c-.062-.048-.175-.098-.338-.15-.15-.047-.278-.1-.399-.163l.014.006c-.259-.14-.388-.328-.388-.564 0-.123.034-.233.103-.328.07-.097.17-.172.299-.227.13-.054.276-.081.437-.081.163 0 .307.029.435.089.127.059.226.141.295.249.071.107.107.229.107.365h-.469c0-.104-.032-.185-.098-.242-.066-.059-.158-.087-.276-.087-.115 0-.204.025-.267.074a.2282.2282 0 00-.096.185v.006c0 .074.037.136.111.186.075.05.185.097.33.14.267.08.461.18.583.299s.183.267.183.444c0 .197-.075.352-.224.464s-.349.167-.601.167c-.175 0-.334-.032-.478-.096a.7707.7707 0 01-.328-.261l-.002-.002a.6722.6722 0 01-.112-.373v-.015.001h.47c0 .251.15.377.45.377.111 0 .198-.022.261-.067a.2226.2226 0 00.093-.182v-.009zm2.502-1.298h-.697v1.895h-.469v-1.895h-.686v-.38h1.853v.38zm1.637.909h-.9v.61h1.056v.377h-1.525v-2.276h1.522v.38h-1.053v.542h.9v.367zm1.274.153h-.373v.833H28.3v-2.276h.845c.269 0 .476.06.622.18s.219.289.219.508c0 .155-.034.285-.101.389a.6895.6895 0 01-.3.245l-.005.002.492.93v.021h-.503l-.427-.832zm-.373-.38h.379c.117 0 .208-.029.273-.089.06-.059.097-.141.097-.231v-.018.001c0-.108-.03-.192-.092-.253s-.154-.092-.28-.092h-.377v.683zm2.84.411v.802h-.469v-2.276h.887c.171 0 .321.031.45.094.13.062.23.151.3.267.069.115.105.245.105.392 0 .223-.077.399-.229.528-.153.128-.363.193-.633.193h-.411zm0-.379h.419c.124 0 .219-.029.283-.087.066-.059.099-.142.099-.25v-.017c0-.098-.037-.187-.099-.254-.066-.068-.156-.104-.272-.106h-.43v.715zm2.965.195h-.9v.61h1.056v.377h-1.525v-2.276h1.522v.38h-1.053v.542h.9v.367zm2.176-.909h-.697v1.895h-.469v-1.895h-.687v-.38h1.853v.38zm1.637.909h-.899v.61h1.056v.377h-1.525v-2.276h1.522v.38h-1.053v.542h.9v.367zm1.274.153h-.373v.833h-.469v-2.276h.846c.269 0 .476.06.622.18s.219.289.219.508c0 .155-.034.285-.101.389a.6866.6866 0 01-.301.245l-.005.002.492.93v.021h-.503l-.427-.832zm-.374-.38h.378c.117 0 .209-.029.273-.089a.324.324 0 00.097-.232v-.018.001c0-.108-.03-.192-.092-.253-.06-.061-.154-.092-.279-.092h-.377v.683zm2.755.616v-.013c0-.077-.037-.146-.094-.189h-.001c-.062-.048-.175-.098-.338-.15-.15-.047-.278-.1-.399-.163l.014.006c-.259-.14-.388-.328-.388-.564 0-.123.035-.233.103-.328.07-.097.17-.172.299-.227.13-.054.276-.081.437-.081.163 0 .307.029.435.089.127.059.226.141.295.249.071.107.107.229.107.365h-.469c0-.104-.032-.185-.098-.242-.066-.059-.158-.087-.276-.087-.115 0-.204.025-.267.074a.2287.2287 0 00-.096.186v.005c0 .074.037.136.111.186s.185.097.33.14c.267.08.461.18.583.299s.183.267.183.444c0 .197-.075.352-.224.464s-.349.167-.601.167c-.175 0-.334-.032-.478-.096a.7707.7707 0 01-.328-.261l-.002-.002a.6722.6722 0 01-.112-.373v-.015.001h.47c0 .251.15.377.45.377.111 0 .198-.022.261-.067a.2235.2235 0 00.094-.182v-.009z"/></symbol><symbol id="company" viewBox="0 0 57 32"><path d="M19.417 26.187c.009 0 .017.002.025.005s.015.007.021.013l.116.111a.9644.9644 0 01-.327.211c-.129.048-.278.076-.434.076h-.032.002a1.213 1.213 0 01-.436-.071.9577.9577 0 01-.33-.2l.001.001a.9075.9075 0 01-.21-.302l-.002-.006a1.016 1.016 0 01-.075-.385v-.012-.019c0-.272.118-.516.305-.684l.001-.001c.099-.087.218-.155.349-.201.143-.048.296-.072.45-.07h.028c.139 0 .273.024.398.067l-.009-.003c.115.044.221.104.313.179l-.098.118a.1206.1206 0 01-.024.021.064.064 0 01-.034.009h-.006a.102.102 0 01-.043-.012L19.314 25l-.073-.041a.8226.8226 0 00-.225-.07l-.005-.001a1 1 0 00-.161-.013h-.013.001-.011c-.112 0-.219.02-.319.055l.007-.002a.734.734 0 00-.254.15l.001-.001a.67.67 0 00-.164.237c-.038.089-.059.193-.059.302v.011-.001.013c0 .11.022.215.061.311l-.002-.005c.036.087.091.167.162.236.067.064.149.115.242.147.095.034.196.051.299.051.059.001.119-.003.178-.01.148-.015.28-.074.385-.164l-.001.001c.015-.012.034-.02.055-.02zm3.358-.558v.012c0 .138-.029.269-.081.387l.002-.006a.8636.8636 0 01-.218.304l-.001.001a1.01 1.01 0 01-.337.198l-.007.002c-.132.045-.284.071-.442.071s-.31-.026-.452-.074l.01.003a1.0161 1.0161 0 01-.342-.202l.001.001a.8925.8925 0 01-.219-.303l-.002-.006c-.05-.116-.078-.251-.078-.393s.029-.277.081-.4l-.003.007c.05-.115.125-.22.221-.309.097-.085.213-.15.341-.194.132-.046.284-.072.442-.072s.31.026.452.075l-.01-.003c.129.045.246.114.343.201.096.088.171.192.22.305.054.127.081.261.078.396zm-.305 0v-.017c0-.108-.02-.211-.058-.305l.002.006c-.071-.182-.216-.322-.396-.384l-.005-.001c-.096-.033-.206-.052-.321-.052s-.225.019-.329.054l.007-.002a.6816.6816 0 00-.246.15.6258.6258 0 00-.156.232l-.001.004c-.035.094-.055.202-.055.316s.02.222.058.322l-.002-.006c.071.182.217.322.399.383l.005.001c.207.068.435.068.643 0a.6848.6848 0 00.245-.148c.07-.069.123-.149.156-.236a.8166.8166 0 00.055-.316zm2.597.331l.031.07c.011-.025.021-.048.033-.07.013-.027.026-.05.039-.072l-.002.003.743-1.174c.015-.02.028-.033.043-.037s.033-.007.051-.007h.23v1.909h-.26v-1.463c-.001-.01-.001-.021-.001-.033s0-.023.001-.035v.002l-.748 1.19a.111.111 0 01-.043.043h-.001c-.018.01-.04.016-.063.016H25.077h-.002a.1339.1339 0 01-.063-.016h.001a.111.111 0 01-.043-.043v-.001l-.77-1.198v1.532h-.251v-1.905h.229c.018 0 .036.002.052.007h-.001c.018.008.032.021.041.037l.759 1.175c.014.02.026.042.037.066l.001.003zm2.796-.095v.715h-.29v-1.906h.649c.123-.002.244.012.362.042.094.023.181.064.256.119.062.049.111.112.144.184l.001.003c.035.078.051.161.05.244v.012a.53.53 0 01-.209.422l-.001.001a.757.757 0 01-.258.126 1.208 1.208 0 01-.327.044h-.024l-.351-.005zm0-.205h.352c.076.001.153-.009.226-.029a.4881.4881 0 00.164-.083l-.001.001a.3645.3645 0 00.133-.282v-.005c0-.006.001-.013.001-.021 0-.049-.011-.095-.03-.137l.001.002a.3711.3711 0 00-.101-.13l-.001-.001a.621.621 0 00-.345-.104c-.016 0-.032.001-.048.002h.002-.352v.786zm3.909.922h-.233a.1115.1115 0 01-.06-.018.116.116 0 01-.038-.044v-.001l-.197-.461h-.994l-.205.461a.1092.1092 0 01-.099.062h-.233l.873-1.909h.302l.884 1.909zm-1.44-.708h.82l-.346-.777a1.3296 1.3296 0 01-.066-.179l-.034.1c-.01.03-.021.059-.032.081l-.343.775zm2.697-1.191c.017.008.032.02.043.034l1.273 1.439v-1.482h.26v1.909h-.148c-.02 0-.04-.004-.057-.012h.001a.1649.1649 0 01-.047-.035l-1.27-1.438c.001.01.001.021.001.033s0 .023-.001.034v-.002 1.419h-.26v-1.909h.154c.018 0 .036.003.052.009zm3.719 1.14v.758h-.291v-.757l-.804-1.15h.266c.021 0 .04.006.056.016a.175.175 0 01.039.043l.503.742c.02.032.038.061.052.089s.027.054.037.081l.037-.082c.014-.03.031-.059.05-.087l.496-.747a.2021.2021 0 01.037-.04.0952.0952 0 01.057-.019h.269l-.805 1.155zM24.923 21.47c.126.014.254.025.384.035 1.962-.763 3.622-2.011 4.772-3.588s1.739-3.415 1.694-5.282l-2.162-1.878c.439 1.988.234 4.043-.594 5.935s-2.245 3.547-4.094 4.779z"/><path d="M24.151 21.382l.058.011c1.975-1.228 3.481-2.942 4.323-4.922s.981-4.133.4-6.181l-3.08-2.676c1.245 2.199 1.747 4.661 1.445 7.099-.301 2.437-1.392 4.75-3.147 6.669zm10.445-6.541c-.523 2.052-1.794 3.902-3.623 5.276-.5.38-1.064.737-1.658 1.043l-.065.03c1.49-.38 2.859-1.053 4.003-1.966s2.03-2.042 2.592-3.3l-1.249-1.084z"/><path d="M34.106 14.539l-1.778-1.545c-.034 1.762-.611 3.483-1.669 4.986s-2.562 2.732-4.352 3.559h.009c.399 0 .797-.021 1.194-.062 1.673-.594 3.151-1.538 4.302-2.748s1.94-2.65 2.295-4.189zm-9.697-8.054L22.287 4.64c-1.897.637-3.527 1.756-4.68 3.212s-1.772 3.179-1.778 4.946c.007 1.952.763 3.846 2.149 5.383 1.385 1.536 3.321 2.628 5.501 3.101 1.946-2.06 3.085-4.605 3.252-7.266s-.647-5.299-2.323-7.531zm14.599 7.769c-.007-2.316-1.07-4.535-2.955-6.173s-4.439-2.561-7.105-2.567h-.021c-1.281 0-2.512.213-3.66.606l.079-.024 12.989 11.286c.423-.919.671-1.995.672-3.128z"/></symbol><symbol id="taglinehere" viewBox="0 0 57 32"><path d="M26.727 3.165h-.073c-.112-.007-.224-.01-.336-.012h-.243c-.212 0-.428.005-.642.016-.007-.001-.016-.001-.024-.001s-.017 0-.025.001h.001c-2.059.12-3.971.635-5.699 1.47l.09-.039-.23.111V16.52l.54-.183c.474-.163.978-.309 1.5-.445 1.29-.345 2.775-.553 4.305-.573h.012v1.551c-.193.001-.38.006-.568.016h-.045c-1.212.068-2.348.25-3.442.537l.12-.027c-1.503.382-2.82.91-4.044 1.586l.087-.044V3.793c1.195-.711 2.578-1.29 4.042-1.665l.11-.024c1.173-.315 2.52-.499 3.909-.505h.231c.273.007.539.019.788.038.658.046 1.31.15 1.949.311v1.527c-.544-.133-1.189-.234-1.849-.282l-.039-.002-.039-.003c-.132-.011-.263-.022-.386-.022zm2.688 1.561c.339.026.69.038 1.044.038 1.464-.006 2.881-.198 4.231-.554l-.117.026c1.502-.383 2.819-.912 4.043-1.587l-.087.044v14.875c-1.195.71-2.578 1.289-4.042 1.665l-.11.024c-1.173.314-2.52.498-3.91.503h-.1c-1.02 0-2.01-.128-2.955-.368l.083.018V4.438c.229.053.466.102.706.142.394.067.81.115 1.214.145zm7.57.116l-.54.181c-.496.167-.997.316-1.5.449-1.344.36-2.888.569-4.48.575h-.004c-.352 0-.676-.01-.989-.03l-.43-.028v12.148l.37.032c.342.03.696.045 1.052.045 1.257-.006 2.473-.172 3.631-.48l-.1.023c1.059-.269 1.977-.608 2.848-1.031l-.088.039.23-.111V4.842zM19.06 24.113a.7935.7935 0 00-.572-.243c-.01 0-.02 0-.03.001h.001-.012c-.121 0-.236.024-.34.067l.006-.002a.7847.7847 0 00-.442.444l-.002.005a.8735.8735 0 00-.062.335v2.023c-.005.142.022.284.079.415.048.104.117.196.203.271a.714.714 0 00.277.144c.099.027.201.042.302.042.113.001.224-.023.326-.07.304-.135.512-.434.512-.781v-.226h-.53v.192c0 .06-.011.118-.032.171l.001-.003a.315.315 0 01-.077.114.3673.3673 0 01-.221.077.2647.2647 0 01-.247-.108l-.001-.001a.478.478 0 01-.071-.251v-.021.001-1.887a.6429.6429 0 01.065-.302.2702.2702 0 01.227-.124c.011 0 .022.001.033.002h-.001.01c.092 0 .174.045.226.114l.001.001c.055.071.088.162.088.26v.012-.001.175h.524v-.206-.009c0-.124-.024-.243-.067-.352l.002.006a.8375.8375 0 00-.177-.285zm3.142-.022a.9376.9376 0 00-.601-.223c-.108 0-.215.02-.316.057a.8376.8376 0 00-.483.443l-.002.005a.9397.9397 0 00-.077.392v1.94c-.004.137.023.272.077.397a.77.77 0 00.205.271c.081.075.176.133.279.171.101.037.208.057.316.057a.9143.9143 0 00.603-.229l-.001.001a.8312.8312 0 00.199-.271.9345.9345 0 00.077-.397v-1.941-.017c0-.135-.029-.264-.08-.381l.002.006a.8761.8761 0 00-.199-.283zm-.247 2.615c.001.009.001.019.001.03 0 .099-.041.188-.106.251a.3874.3874 0 01-.499 0h.001a.3441.3441 0 01-.106-.25c0-.011 0-.022.002-.032v.001-1.941c-.001-.009-.001-.019-.001-.03 0-.098.041-.187.106-.25a.3874.3874 0 01.499 0h-.001c.066.063.106.152.106.25 0 .011 0 .021-.001.032v-.001 1.941zm4.374.867v-3.675h-.508l-.668 1.945h-.009l-.674-1.945h-.503v3.674h.525v-2.235h.01l.514 1.58h.262l.518-1.58h.01v2.235h.525zm2.982-3.416a.7269.7269 0 00-.297-.201 1.1527 1.1527 0 00-.361-.057h-.8v3.675h.524v-1.435h.269a.968.968 0 00.473-.1c.12-.068.217-.163.286-.278l.002-.003a.893.893 0 00.12-.32c.018-.116.028-.249.028-.385v-.035.002c.005-.176-.012-.353-.051-.525a.789.789 0 00-.193-.338zm-.27 1.12c-.002.07-.02.136-.05.194l.001-.003a.299.299 0 01-.133.128l-.002.001c-.065.03-.14.047-.22.047-.01 0-.019 0-.028-.001h.001-.239v-1.249h.27c.008 0 .016-.001.025-.001.077 0 .149.017.214.048l-.003-.001c.054.031.096.078.122.134l.001.002c.029.065.044.134.046.205v.244c0 .085.005.174 0 .252h-.005zm2.75-1.378h-.429l-.81 3.675h.524l.154-.789h.714l.154.789h.523l-.829-3.675zm-.483 2.384l.258-1.332h.01l.256 1.332h-.523zm3.865-.171h-.01l-.79-2.213h-.503v3.675h.523v-2.21h.011l.8 2.209h.493v-3.674h-.523v2.213zm3.199-2.213l-.421 1.461h-.011l-.421-1.461h-.554l.719 2.122v1.553h.524v-1.553l.719-2.121h-.555zM17.6 28.611h.252v.708h.171v-.708h.251v-.145H17.6v.146zm2.121-.146l-.331.853h.182l.07-.194h.34l.073.194h.187l-.339-.853h-.182zm-.027.516l.116-.316.116.316h-.232zm2.124.023h.197v.11a.3258.3258 0 01-.203.072H21.8a.2185.2185 0 01-.169-.081.3516.3516 0 01-.063-.203c0-.007 0-.013.001-.02v.001c0-.19.082-.285.245-.285.006-.001.012-.001.018-.001.084 0 .155.058.174.136v.001l.169-.033c-.036-.166-.156-.251-.362-.251h-.011c-.11 0-.211.042-.287.11a.4154.4154 0 00-.124.296c0 .011 0 .022.001.033v-.001.02c0 .115.041.22.11.301l-.001-.001c.075.078.181.126.297.126.009 0 .018 0 .027-.001h-.001.014c.134 0 .257-.052.348-.137v-.336h-.37v.144zm2.141-.539h-.173v.853h.597v-.145h-.425v-.708zm1.811 0h-.173v.853h.173v-.853zm1.769.57l-.349-.57h-.167v.853h.16v-.557l.343.557h.172v-.853h-.158v.57zm1.601-.093h.425v-.145h-.425v-.187h.457v-.146h-.63v.853h.647v-.145h-.475v-.231zm3.88-.14h-.336v-.336h-.171v.853h.171v-.373h.336v.373h.172v-.853h-.172v.337zm1.609.14h.427v-.145h-.427v-.187h.459v-.146h-.629v.853h.646v-.145h-.475v-.231zm2.183.001c.149-.023.224-.102.224-.237.001-.007.001-.015.001-.024 0-.068-.033-.128-.085-.166h-.001a.4777.4777 0 00-.216-.051c-.012 0-.023 0-.035.001h.002-.362v.853h.172v-.357h.048c.034 0 .066.007.094.02l-.001-.001a.181.181 0 01.061.062l.186.271h.205l-.104-.166a.5984.5984 0 00-.187-.203l-.002-.001zm-.173-.118h-.126v-.214h.135c.011-.001.023-.001.036-.001.049 0 .097.008.141.023l-.003-.001c.023.021.037.05.037.083 0 .037-.018.069-.045.09a.4643.4643 0 01-.142.021c-.011 0-.022 0-.033-.001h.002zm1.82.117h.425v-.145h-.425v-.187h.459v-.146h-.631v.853h.647v-.145h-.475v-.231z"/></symbol><symbol id="yaco" viewBox="0 0 57 32"><path d="M20.267 3.733l3.738 3.538-6.938-.004v17.167H35.2V17.87l3.733 3.534V3.733H20.266zm14.769 13.722L24.439 7.423h10.597v10.032zm-3.29 4.468h-11.81V10.378h.835v10.763h10.975v.781zm-9.021 4.797l-.436.899-.436-.899h-.366l.637 1.198v.698h.331v-.698l.635-1.198h-.364zm.549 1.896l.154-.442h.734l.155.442h.344l-.717-1.896h-.296l-.716 1.896h.342zm.52-1.493l.275.786h-.549l.275-.787zm1.737.74a.4252.4252 0 00-.071.238v.003c0 .16.056.29.168.389s.263.149.45.149c.188 0 .349-.051.485-.153l.107.126h.367l-.278-.33c.109-.149.164-.341.164-.574h-.275c0 .128-.027.244-.079.348l-.366-.432.129-.094a.7236.7236 0 00.195-.195l.002-.003c.038-.061.06-.136.06-.216v-.003-.007a.39.39 0 00-.132-.293.477.477 0 00-.32-.123h-.02.001c-.153 0-.274.044-.364.13s-.135.203-.135.352c0 .061.014.123.043.189.03.065.082.144.155.237-.14.101-.235.188-.282.261zm.856.42a.4782.4782 0 01-.299.107h-.015a.3092.3092 0 01-.212-.083.2856.2856 0 01-.085-.203v-.011.001c0-.101.052-.192.156-.271l.041-.029.414.489zm-.34-.84c-.09-.11-.134-.202-.134-.275 0-.063.019-.116.055-.157a.184.184 0 01.139-.063h.015c.052 0 .1.02.135.054.037.035.056.077.056.126v.007c0 .071-.031.134-.08.177l-.041.032-.145.099zm3.086 1.03c.13-.114.205-.272.224-.474h-.328c-.018.135-.059.232-.124.29s-.163.087-.292.087c-.141 0-.249-.054-.323-.162s-.11-.264-.11-.469v-.167c.002-.203.041-.355.117-.46.077-.105.188-.157.331-.157.123 0 .217.03.28.091s.104.158.12.294h.328c-.021-.207-.095-.368-.222-.482s-.296-.171-.506-.171c-.155 0-.292.037-.411.111a.717.717 0 00-.27.31l-.002.005c-.06.133-.096.288-.096.451v.023-.001.177c.003.174.035.327.098.46s.151.234.266.306c.116.071.249.107.4.107.216 0 .389-.056.519-.169zm1.936-.266c.064-.141.097-.304.097-.49v-.105-.02c0-.169-.036-.329-.102-.473l.003.007a.7277.7277 0 00-.274-.318l-.003-.002c-.119-.075-.256-.112-.411-.112s-.291.037-.411.113c-.119.075-.211.182-.277.324-.062.137-.098.297-.098.466v.025-.001.107c.001.181.034.341.099.48.066.139.159.246.279.322.121.075.258.112.411.112.156 0 .293-.037.412-.112.119-.076.212-.183.276-.323zm-.353-1.072c.08.112.119.274.119.484v.099c0 .213-.039.376-.118.487-.078.111-.19.167-.336.167h-.014a.3929.3929 0 01-.324-.17l-.001-.001c-.081-.114-.121-.275-.121-.483v-.109c.002-.204.043-.362.122-.473a.3896.3896 0 01.321-.168h.014-.001c.146 0 .259.056.338.168z"/></symbol><symbol id="close" viewBox="0 0 32 32"><path d="M26.667 7.303l-1.97-1.97-7.808 7.808-7.808-7.808-1.97 1.97 7.808 7.808-7.808 7.808 1.97 1.97 7.808-7.808 7.808 7.808 1.97-1.97-7.808-7.808 7.808-7.808z"/></symbol><symbol id="icon-check" viewBox="0 0 42 32"><path fill="#fff" style="fill:var(--color1, #fff);stroke:var(--color1, #fff)" stroke="#fff" stroke-width=".64" d="m6.262 15.206-.221-.211-.221.208-3.085 2.925.243.234 11.408 10.88.221-.211L38.863 5.892l-.243-.23-3.043-2.902-.221.211-20.97 19.987-8.125-7.75z"/></symbol><symbol id="icon-send" viewBox="0 0 32 32"><path d="M32 0 0 18l10.227 3.787L26 7 14.003 23.187l.009.003-.012-.003V32l5.735-6.691L27.002 28l4.999-28z"/></symbol><symbol id="icon-person" viewBox="0 0 32 32"><path d="M16 16a5.333 5.333 0 1 0 0-10.666A5.333 5.333 0 1 0 16 16zm0 2.667c-3.561 0-10.667 1.787-10.667 5.333v1.333c0 .732.599 1.333 1.333 1.333h18.667c.732 0 1.333-.601 1.333-1.333V24c0-3.547-7.108-5.333-10.667-5.333z"/></symbol><symbol id="icon-phone" viewBox="0 0 32 32"><path d="m24.882 19.774-3.268-.373a2.555 2.555 0 0 0-2.11.732l-2.368 2.368c-3.669-1.894-6.585-4.81-8.427-8.372l-.051-.108 2.382-2.377a2.552 2.552 0 0 0 .731-2.122l.001.012-.373-3.243a2.578 2.578 0 0 0-2.557-2.276H6.613c-1.454 0-2.663 1.209-2.574 2.663.683 10.987 9.47 19.76 20.444 20.443 1.452.089 2.663-1.12 2.663-2.574v-2.238a2.549 2.549 0 0 0-2.253-2.532l-.012-.001z"/></symbol><symbol id="icon-email" viewBox="0 0 32 32"><path d="M26.667 5.333H5.334A2.662 2.662 0 0 0 2.682 8l-.014 16c0 1.467 1.2 2.667 2.667 2.667h21.333c1.467 0 2.667-1.2 2.667-2.667V8c0-1.467-1.2-2.667-2.667-2.667zm-.534 5.668-9.426 5.892a1.343 1.343 0 0 1-1.421-.004l.006.003L5.866 11A1.133 1.133 0 1 1 7.07 9.083l-.004-.003 8.933 5.586 8.933-5.588a1.132 1.132 0 1 1 1.204 1.916l-.005.003z"/></symbol><symbol id="icon-check" viewBox="0 0 42 32"><path fill="#fff" style="fill:var(--color1, #fff);stroke:var(--color1, #fff)" stroke="#fff" stroke-width=".64" d="m6.262 15.206-.221-.211-.221.208-3.085 2.925.243.234 11.408 10.88.221-.211L38.863 5.892l-.243-.23-3.043-2.902-.221.211-20.97 19.987-8.125-7.75z"/></symbol><symbol id="icon-menu" viewBox="0 0 32 32"><path d="M6.4 11.734V9.6h19.2v2.134H6.4zm0 5.332h19.2v-2.133H6.4v2.133zm0 5.334h19.2v-2.134H6.4V22.4z"/></symbol><symbol id="icon-mob_close" viewBox="0 0 32 32"><path d="M23.734 10.304 22.23 8.8l-5.963 5.962L10.305 8.8l-1.504 1.504 5.962 5.962-5.962 5.963 1.504 1.504 5.962-5.963 5.963 5.963 1.504-1.504-5.963-5.963 5.963-5.962z"/></symbol></defs></svg>